<?xml version="1.0" encoding="utf-8"?>
<!DOCTYPE svg PUBLIC "-//W3C//DTD SVG 1.0//EN" "http://www.w3.org/TR/2001/REC-SVG-20010904/DTD/svg10.dtd">
<svg version="1.0" xmlns="http://www.w3.org/2000/svg" width="291px" height="291px" viewBox="0 0 291 291" preserveAspectRatio="xMidYMid meet">
 <g fill="#212a33">
  <path d="M15 236.30 c0 -17.50 0.20 -29.70 0.55 -32.10 2.85 -20.65 17.70 -36.25 41.80 -43.85 12.40 -3.95 21.50 -5.10 39.90 -5.10 16.05 0.05 21.90 0.60 32.50 3.20 29.40 7.25 45.90 22.90 49.20 46.80 0.35 2.35 0.55 14.60 0.55 31.55 l0 27.70 -14.95 0 -14.95 0 -0.35 -7.85 c-0.20 -4.35 -0.65 -14.85 -0.95 -23.40 l-0.55 -15.50 -4.85 -0.15 -4.90 -0.15 0 23.55 0 23.50 -40.75 0 -40.75 0 0 -23.50 0 -23.50 -4.90 0 -4.95 0 -0.60 17.40 c-0.40 9.55 -0.80 20.05 -1 23.35 l-0.30 6 -14.85 0.15 -14.90 0.10 0 -28.20z"/>
  <path d="M191.25 209.90 c-1.25 -17.85 -6.85 -30.55 -18.45 -42.15 -5.60 -5.55 -11.90 -9.90 -19.95 -13.75 -5.50 -2.65 -14.55 -5.90 -18.70 -6.75 -2 -0.40 -2.05 -1.05 -0.25 -3.55 4.95 -6.75 15.40 -12.80 27.70 -15.95 13.45 -3.50 33.25 -4 47 -1.25 17.85 3.65 30.55 11.90 36.35 23.75 3.70 7.45 3.70 7.50 3.90 31.65 l0.20 21.60 8.50 0 8.45 0 0 -83.75 0 -83.75 -70.75 0 -70.75 0 0 6.65 c0 3.70 -0.15 6.80 -0.30 7 -0.15 0.15 -1.40 -0.30 -2.75 -1 -1.40 -0.65 -3.65 -1.65 -5.10 -2.10 l-2.60 -0.90 -0.15 -6.55 c-0.15 -7.15 0.35 -9 3 -11.45 3 -2.80 -1.50 -2.65 78.75 -2.65 70.80 0 74 0.05 75.90 0.95 2.40 1.10 3.95 2.70 5 5.15 0.65 1.65 0.75 11.45 0.75 88.75 0 83.25 -0.05 87 -0.95 88.90 -1.10 2.50 -3.45 4.55 -5.95 5.25 -1.20 0.30 -15.35 0.50 -40.15 0.50 l-38.35 0 -0.35 -4.60z m35.10 -11 c-0.20 -2.55 -0.45 -9.75 -0.65 -16 l-0.35 -11.40 -3.65 0 -3.70 0 0 16 0 16 4.30 0 4.35 0 -0.30 -4.60z"/>
  <path d="M86 143.75 c-2.60 -0.70 -6.75 -2.25 -9.25 -3.50 -16.70 -8.35 -26.70 -27.15 -24.30 -45.45 1.50 -11.25 5.80 -19.65 14.05 -27.45 9.10 -8.65 20.95 -12.95 33.45 -12.20 19.40 1.20 35.95 14.90 40.90 33.80 1.65 6.45 1.80 15.30 0.25 21.55 -3.75 15.55 -15.25 27.85 -30.60 32.80 -3.70 1.15 -5.25 1.35 -12 1.55 -7 0.15 -8.20 0.05 -12.50 -1.10z"/>
  <path d="M180.75 116.70 c-2 -0.35 -5.55 -1.65 -8.25 -3 -7.80 -3.85 -14.05 -11.05 -17.05 -19.70 -1 -2.80 -1.15 -4.25 -1.15 -10.25 0 -6.65 0.05 -7.20 1.60 -11.25 3.90 -10.30 11.45 -17.45 22 -20.90 4.95 -1.60 13.10 -1.75 18.10 -0.40 9.70 2.65 17.45 9.10 21.70 17.95 2.65 5.50 3.30 8.35 3.30 14.60 0 6 -0.65 9 -3.05 14.20 -6.65 14.25 -21.65 21.85 -37.20 18.75z"/>
  <path d="M234 69.90 l-12.75 -12.90 2.65 -2.50 c1.50 -1.40 2.85 -2.50 3 -2.50 0.20 0 6.15 5.80 13.25 12.90 l12.85 12.85 -2.65 2.65 c-1.45 1.40 -2.85 2.55 -3.10 2.50 -0.30 0 -6.25 -5.85 -13.25 -13z"/>
  <path d="M245.40 58.95 c-5.45 -5.50 -9.90 -10.15 -9.90 -10.40 0 -0.20 1.15 -1.60 2.60 -3.05 l2.55 -2.60 10.30 10.30 10.30 10.30 -2.75 2.75 c-1.50 1.50 -2.85 2.70 -3 2.70 -0.15 -0.05 -4.70 -4.55 -10.10 -10z"/>
 </g>
</svg>